<svg width="15" height="15" viewBox="0 0 15 15" fill="none" xmlns="http://www.w3.org/2000/svg">
<g clip-path="url(#clip0_4304_18817)">
<path d="M12.6227 7.53864C12.4636 7.53866 12.311 7.60188 12.1985 7.71439C12.086 7.8269 12.0228 7.97949 12.0227 8.13861V11.1781C12.0227 12.0593 11.4683 12.8586 10.6431 13.1667C10.4056 13.2551 10.1543 13.3003 9.90088 13.2999H3.82189C2.652 13.2999 1.70002 12.3479 1.70002 11.1781V5.09915C1.70002 3.92926 2.652 2.97728 3.82189 2.97728H6.86134C7.01876 2.97471 7.16887 2.91036 7.27928 2.79813C7.38969 2.68589 7.45157 2.53475 7.45157 2.37731C7.45157 2.21987 7.38969 2.06874 7.27928 1.9565C7.16887 1.84426 7.01876 1.77992 6.86134 1.77734H3.82189C1.99024 1.77726 0.5 3.2675 0.5 5.09915V11.1781C0.5 13.0097 1.99024 14.4999 3.82189 14.4999H9.9008C10.2974 14.5004 10.6909 14.4296 11.0625 14.291C12.3545 13.8085 13.2227 12.5577 13.2227 11.1781V8.13861C13.2227 7.97949 13.1594 7.8269 13.0469 7.71439C12.9344 7.60188 12.7818 7.53866 12.6227 7.53864Z" fill="white"/>
<path d="M11.4274 0.5C9.73324 0.5 8.35517 1.87815 8.35517 3.57224C8.35517 5.26633 9.73332 6.64488 11.4274 6.64488C13.1215 6.64488 14.4999 5.26633 14.4999 3.57224C14.4999 1.87815 13.1215 0.5 11.4274 0.5ZM11.4274 5.44494C10.395 5.44494 9.55511 4.60473 9.55511 3.57232C9.55511 2.53991 10.3949 1.70002 11.4274 1.70002C12.4599 1.70002 13.2999 2.53983 13.2999 3.57232C13.2999 4.60481 12.4598 5.44494 11.4274 5.44494ZM5.21094 6.87227C5.21094 7.03139 5.27415 7.184 5.38666 7.29651C5.49918 7.40903 5.65178 7.47224 5.81091 7.47224H7.91092C8.06834 7.46966 8.21844 7.40532 8.32886 7.29308C8.43927 7.18085 8.50115 7.02971 8.50115 6.87227C8.50115 6.71483 8.43927 6.56369 8.32886 6.45146C8.21844 6.33922 8.06834 6.27488 7.91092 6.2723H5.81099C5.65186 6.2723 5.49924 6.33551 5.38672 6.44802C5.27419 6.56054 5.21096 6.71314 5.21094 6.87227ZM7.91092 8.80548H5.81099C5.65357 8.80805 5.50346 8.8724 5.39305 8.98463C5.28264 9.09687 5.22076 9.248 5.22076 9.40545C5.22076 9.56289 5.28264 9.71402 5.39305 9.82626C5.50346 9.93849 5.65357 10.0028 5.81099 10.0054H7.911C8.06842 10.0028 8.21852 9.93847 8.32892 9.82623C8.43933 9.71399 8.5012 9.56285 8.50119 9.40541C8.50118 9.24796 8.43929 9.09683 8.32887 8.98461C8.21845 8.87238 8.06834 8.80804 7.91092 8.80548Z" fill="white"/>
</g>
<defs>
<clipPath id="clip0_4304_18817">
<rect width="14" height="14" fill="white" transform="translate(0.5 0.5)"/>
</clipPath>
</defs>
</svg>
