<svg width="20" height="20" viewBox="0 0 20 20" fill="none" xmlns="http://www.w3.org/2000/svg">
<path d="M18.1242 4.3601C18.124 4.34855 18.1234 4.33701 18.1225 4.32549C18.1218 4.31608 18.1208 4.30674 18.1197 4.29747C18.1184 4.28667 18.1167 4.27593 18.1148 4.26519C18.1131 4.25551 18.1112 4.24589 18.1091 4.23637C18.1067 4.22619 18.1041 4.2161 18.1012 4.20603C18.0985 4.1964 18.0957 4.18686 18.0926 4.17743C18.0893 4.16759 18.0857 4.1579 18.0819 4.14822C18.0783 4.13895 18.0746 4.12977 18.0706 4.12075C18.0663 4.11121 18.0617 4.10185 18.057 4.0925C18.0525 4.08363 18.0479 4.07486 18.043 4.06624C18.0379 4.05733 18.0325 4.04858 18.027 4.03986C18.0214 4.03107 18.0156 4.02244 18.0096 4.01396C18.0039 4.00597 17.998 3.99813 17.9919 3.99034C17.9851 3.98159 17.978 3.97308 17.9707 3.96471C17.9673 3.96076 17.9643 3.95656 17.9607 3.95268C17.9577 3.9494 17.9544 3.94661 17.9513 3.94341C17.9438 3.93551 17.936 3.92794 17.928 3.92044C17.9207 3.9135 17.9133 3.90662 17.9057 3.90007C17.8981 3.89367 17.8904 3.8876 17.8826 3.88153C17.874 3.87489 17.8655 3.86832 17.8567 3.86219C17.8491 3.85687 17.8412 3.85193 17.8333 3.84695C17.824 3.84108 17.8147 3.83522 17.8052 3.82988C17.7969 3.82523 17.7884 3.82101 17.7798 3.81674C17.7704 3.81203 17.7611 3.80728 17.7515 3.80307C17.7421 3.79895 17.7325 3.79536 17.723 3.7917C17.7138 3.78819 17.7046 3.78463 17.6953 3.78157C17.6852 3.77824 17.6749 3.77545 17.6646 3.77263C17.6553 3.77011 17.6461 3.76757 17.6368 3.76549C17.6265 3.76319 17.616 3.76138 17.6056 3.75958C17.5957 3.7579 17.5858 3.75626 17.5758 3.75506C17.566 3.75386 17.556 3.75306 17.546 3.75233C17.5351 3.75153 17.5241 3.7509 17.5132 3.75067C17.5088 3.75057 17.5045 3.75 17.5 3.75H2.5C2.4958 3.75 2.49176 3.75055 2.48756 3.75063C2.47604 3.75086 2.46452 3.75151 2.45304 3.75236C2.44354 3.75309 2.43412 3.75383 2.42477 3.75496C2.41428 3.75622 2.40387 3.75793 2.39342 3.75975C2.38346 3.76147 2.3735 3.76316 2.36374 3.76535C2.3539 3.76755 2.34421 3.77022 2.33444 3.77289C2.3246 3.7756 2.31476 3.77825 2.30511 3.78141C2.29534 3.78462 2.28573 3.78834 2.27608 3.79204C2.26696 3.79555 2.2578 3.79898 2.24888 3.80289C2.23892 3.80726 2.22919 3.81218 2.21942 3.8171C2.21122 3.82122 2.20302 3.82525 2.19505 3.82971C2.18528 3.83518 2.17575 3.84119 2.16621 3.84724C2.15858 3.85208 2.15088 3.85689 2.14348 3.86206C2.13451 3.86828 2.12585 3.87495 2.11719 3.8817C2.10949 3.88767 2.10186 3.89366 2.09446 3.89999C2.08675 3.90657 2.07931 3.9135 2.07184 3.92054C2.06394 3.92798 2.0562 3.93553 2.04868 3.94337C2.04563 3.94659 2.04228 3.9494 2.03926 3.95268C2.03571 3.95657 2.03274 3.96076 2.0293 3.96471C2.02202 3.97308 2.01492 3.98159 2.00805 3.99034C2.00199 3.99812 1.99608 4.00597 1.99043 4.01395C1.9844 4.02244 1.97864 4.03106 1.97304 4.03986C1.9675 4.04857 1.96213 4.05733 1.95701 4.06624C1.95213 4.07486 1.94752 4.08363 1.94301 4.0925C1.93828 4.10185 1.93367 4.11121 1.9294 4.12075C1.92539 4.12977 1.92169 4.13894 1.9181 4.14821C1.91433 4.1579 1.91067 4.16759 1.90739 4.17743C1.90426 4.18685 1.90147 4.19639 1.89876 4.20603C1.89594 4.2161 1.89327 4.22619 1.89094 4.23637C1.88881 4.24589 1.88694 4.2555 1.88522 4.26519C1.88331 4.27593 1.88164 4.28667 1.8803 4.29746C1.87915 4.30675 1.87823 4.31609 1.87752 4.32548C1.8766 4.33702 1.87602 4.34856 1.87576 4.3601C1.87565 4.3651 1.875 4.36996 1.875 4.375V15C1.87538 15.3314 2.0072 15.6491 2.24154 15.8835C2.47587 16.1178 2.7936 16.2496 3.125 16.25H16.875C17.2064 16.2496 17.5241 16.1178 17.7585 15.8835C17.9928 15.6491 18.1246 15.3314 18.125 15V4.375C18.125 4.36996 18.1244 4.3651 18.1242 4.3601ZM3.125 5.7958L7.71141 10L3.125 14.2042V5.7958ZM4.10683 15L8.6364 10.8479L9.57764 11.7107C9.69292 11.8164 9.84362 11.875 10 11.875C10.1564 11.875 10.3071 11.8164 10.4224 11.7107L11.3636 10.8479L15.8932 15H4.10683ZM12.2886 10L16.8751 5.79569L16.8757 14.2048L12.2886 10Z" fill="white"/>
</svg>
