<svg width="24" height="24" viewBox="0 0 24 24" fill="none" xmlns="http://www.w3.org/2000/svg">
<path d="M16.8388 5.33431H13.5054C12.8918 5.33431 12.3943 5.83178 12.3943 6.44542V9.77875H16.8388C16.9651 9.77595 17.085 9.83475 17.1601 9.93642C17.2352 10.0381 17.2563 10.1699 17.2165 10.2899L16.3943 12.7343C16.3185 12.9586 16.1089 13.1103 15.8721 13.1121H12.3943V21.4454C12.3943 21.7522 12.1455 22.001 11.8388 22.001H9.06098C8.75416 22.001 8.50542 21.7522 8.50542 21.4454V13.1121H6.83876C6.53194 13.1121 6.2832 12.8633 6.2832 12.5565V10.3343C6.2832 10.0275 6.53194 9.77875 6.83876 9.77875H8.50542V6.44542C8.50542 3.99082 10.4953 2.00098 12.9499 2.00098H16.8388C17.1455 2.00098 17.3943 2.24971 17.3943 2.55653V4.77875C17.3943 5.08558 17.1455 5.33431 16.8388 5.33431Z" fill="white"/>
</svg>
