<svg width="20" height="24" viewBox="0 0 20 24" fill="none" xmlns="http://www.w3.org/2000/svg">
<path d="M18.748 18.25H17.498V11.0265C17.4979 10.8523 17.4614 10.6801 17.391 10.5209C17.3205 10.3616 17.2177 10.2188 17.089 10.1015L10.8384 4.41912C10.6088 4.20888 10.3088 4.09227 9.99754 4.09229C9.68624 4.0923 9.38624 4.20893 9.15668 4.4192L2.90714 10.1015C2.77841 10.2188 2.67554 10.3616 2.6051 10.5209C2.53467 10.6801 2.49821 10.8523 2.49805 11.0264V18.25H1.24805C1.08229 18.25 0.923315 18.3158 0.806105 18.433C0.688895 18.5503 0.623047 18.7092 0.623047 18.875C0.623047 19.0407 0.688895 19.1997 0.806105 19.3169C0.923315 19.4341 1.08229 19.5 1.24805 19.5H18.748C18.9138 19.5 19.0728 19.4341 19.19 19.3169C19.3072 19.1997 19.373 19.0407 19.373 18.875C19.373 18.7092 19.3072 18.5503 19.19 18.433C19.0728 18.3158 18.9138 18.25 18.748 18.25H18.748ZM11.8726 18.2493H11.2476V18.25H8.74759V18.2493H8.12259V14.4993C8.12259 14.3336 8.18844 14.1746 8.30565 14.0574C8.42286 13.9402 8.58183 13.8743 8.74759 13.8743H11.2476C11.4134 13.8743 11.5723 13.9402 11.6895 14.0574C11.8067 14.1746 11.8726 14.3336 11.8726 14.4993V18.2493Z" fill="white"/>
</svg>
