<svg width="24" height="24" viewBox="0 0 24 24" fill="none" xmlns="http://www.w3.org/2000/svg">
<path fill-rule="evenodd" clip-rule="evenodd" d="M16.4444 2H7.55556C4.48731 2 2 4.48731 2 7.55556V16.4444C2 19.5127 4.48731 22 7.55556 22H16.4444C19.5127 22 22 19.5127 22 16.4444V7.55556C22 4.48731 19.5127 2 16.4444 2ZM20.0556 16.4444C20.0494 18.4362 18.4362 20.0494 16.4444 20.0556H7.55556C5.56372 20.0494 3.95054 18.4362 3.94444 16.4444V7.55556C3.95054 5.56372 5.56372 3.95054 7.55556 3.94444H16.4444C18.4362 3.95054 20.0494 5.56372 20.0556 7.55556V16.4444ZM17.2778 7.83333C17.8914 7.83333 18.3889 7.33587 18.3889 6.72222C18.3889 6.10858 17.8914 5.61111 17.2778 5.61111C16.6641 5.61111 16.1667 6.10858 16.1667 6.72222C16.1667 7.33587 16.6641 7.83333 17.2778 7.83333ZM12 7C9.23858 7 7 9.23858 7 12C7 14.7614 9.23858 17 12 17C14.7614 17 17 14.7614 17 12C17.003 10.673 16.4771 9.39952 15.5388 8.4612C14.6004 7.52288 13.327 6.99704 12 7ZM8.94444 12C8.94444 13.6876 10.3124 15.0556 12 15.0556C13.6876 15.0556 15.0556 13.6876 15.0556 12C15.0556 10.3124 13.6876 8.94444 12 8.94444C10.3124 8.94444 8.94444 10.3124 8.94444 12Z" fill="white"/>
</svg>
