<svg width="15" height="16" viewBox="0 0 15 16" fill="none" xmlns="http://www.w3.org/2000/svg">
<path d="M3.05273 5.60921H12.6167M3.05273 5.60921V10.8695C3.05273 11.5391 3.05273 11.8737 3.18304 12.1294C3.29765 12.3544 3.48041 12.5374 3.70536 12.652C3.96084 12.7822 4.29545 12.7822 4.96369 12.7822H10.7058C11.374 12.7822 11.7082 12.7822 11.9636 12.652C12.1886 12.5374 12.372 12.3544 12.4866 12.1294C12.6167 11.8739 12.6167 11.5398 12.6167 10.8716V5.60921M3.05273 5.60921V5.13112C3.05273 4.46158 3.05273 4.12656 3.18304 3.87083C3.29765 3.64588 3.48041 3.46312 3.70536 3.34851C3.96109 3.21821 4.29611 3.21821 4.96565 3.21821H5.44374M12.6167 5.60921V5.12916C12.6167 4.46093 12.6167 4.12631 12.4866 3.87083C12.372 3.64588 12.1886 3.46312 11.9636 3.34851C11.7079 3.21821 11.3736 3.21821 10.7041 3.21821H10.2257M10.2257 2.02271V3.21821M10.2257 3.21821H5.44374M5.44374 2.02271V3.21821" stroke="white" stroke-width="1.07595" stroke-linecap="round" stroke-linejoin="round"/>
</svg>
